<svg id="Layer_1" data-name="Layer 1" xmlns="http://www.w3.org/2000/svg" viewBox="0 0 231.09 156"><defs><style>.cls-1,.cls-2{fill:#00a79d;}.cls-1{opacity:0.2;}</style></defs><title>Icon 3</title><path class="cls-1" d="M162,105.74c1.09-.1,1.83-.15,2.57-.23,3.66-.41,4.83-1.56,5.17-5.17.13-1.37.21-2.75.21-4.12q0-18.77,0-37.55c0-.66-.06-1.32-.09-2-.66,0-1.09-.07-1.53-.07q-48.16,0-96.31,0a30.8,30.8,0,0,0-4.48.37c-2.75.41-4.63,1.89-5.06,4.75A36.73,36.73,0,0,0,62,67.14c0,12.2,0,24.41,0,36.61,0,.6.07,1.21.11,1.88h7.85c0-.83,0-1.56,0-2.3,0-5.82.31-11.65,0-17.45-.32-5.65,4.39-10.38,10.59-10.4,5.67,0,11.34.13,17,.13,13.12,0,26.24-.06,39.36-.07,5.44,0,10.89,0,16.32.19,4.55.19,8.93,4.72,8.77,9.11-.22,6.12,0,12.26,0,18.39C162,104,162,104.73,162,105.74Z"/><g id="yn9KgQ"><path class="cls-2" d="M83.31,53.82c0-3.3,0-6.35,0-9.41,0-6.32,0-12.64,0-19,0-1.81.67-2.43,2.43-2.43q29.85.06,59.7,0c1.82,0,2.4.69,2.39,2.45-.05,8.7,0,17.39,0,26.09,0,.67,0,1.35,0,2.25h2.4c6.57,0,13.14,0,19.71,0,1.77,0,2.43.58,2.43,2.4-.05,13.64,0,27.28-.05,40.92a32.48,32.48,0,0,1-.44,5c-.49,3.08-2.24,5.16-5.38,5.73-1.37.25-1.7.85-1.64,2.13.09,2.25.06,4.5,0,6.76,0,2.93-1.87,4.85-4.57,4.88s-4.57-1.78-4.73-4.71c-.08-1.37,0-2.75,0-4.13s0-2.72,0-4.28c-2.41,0-4.59-.07-6.75.07-.35,0-.9,1-.9,1.55-.06,6.76,0,13.52-.05,20.27,0,2.35-.22,2.57-2.59,2.57H85.86c-2.3,0-2.55-.26-2.55-2.62q0-10.14,0-20.27c0-.43,0-.87-.07-1.44H73.65c0,2.7,0,5.37,0,8s-1.69,4.72-4.13,5A4.55,4.55,0,0,1,64.35,117c-.07-2.74,0-5.48,0-8.5-1.31,0-2.41,0-3.51,0-1.4.05-2-.51-2-2,0-13.77-.07-27.53.09-41.3.1-8.2,3-11,11.17-11.3,3.69-.15,7.38-.08,11.07-.1Zm78.27,51.93c1.09-.1,1.83-.15,2.57-.23,3.66-.41,4.83-1.56,5.17-5.17.13-1.37.21-2.75.21-4.12q0-18.77,0-37.55c0-.66-.06-1.32-.09-2-.66,0-1.09-.07-1.53-.07q-48.16,0-96.31,0a30.8,30.8,0,0,0-4.48.37c-2.75.41-4.63,1.89-5.06,4.75a36.75,36.75,0,0,0-.49,5.41c0,12.2,0,24.41,0,36.61,0,.6.07,1.21.11,1.88H69.5c0-.83,0-1.56,0-2.3,0-5.82.31-11.65,0-17.45-.32-5.65,4.39-10.38,10.59-10.4,5.67,0,11.34.13,17,.13,13.12,0,26.24-.06,39.36-.07,5.44,0,10.89,0,16.32.19,4.55.19,8.93,4.72,8.77,9.11-.22,6.12,0,12.26,0,18.39C161.58,104,161.58,104.73,161.58,105.74ZM86.28,30.32V53.7h58.5v-27a.81.81,0,0,0-.81-.81H90.72A4.44,4.44,0,0,0,86.28,30.32Zm58.49,99.82V86.79H140.4v2.53q0,14.92,0,29.85c0,2.52-.18,2.7-2.64,2.71H94a2.8,2.8,0,0,1-2.8-2.8q0-15,0-30c0-.73,0-1.46,0-2.23H86.28v43.32Zm14-24.49c0-7.06.09-13.88,0-20.69a7.09,7.09,0,0,0-7.13-6.61q-10.12,0-20.24,0-17.35,0-34.69.06c-5.68,0-11.37,0-17.05,0-4.31.06-7.41,3.17-7.37,7.13,0,5.38.05,10.76.07,16.15,0,1.29,0,2.59,0,3.92H77.6c0-6.23,0-12.3,0-18.36,0-3.21.16-3.39,3.32-3.41q12.17,0,24.33,0c8.61,0,17.22.09,25.83.1,6.74,0,13.48-.07,20.23-.07a2.79,2.79,0,0,1,2.79,2.78c0,5.7,0,11.39,0,17.09,0,.66.08,1.31.12,2Zm-35.1-.75a14.17,14.17,0,0,0,1.18.8c2.65,1.4,5.34,2.73,7.94,4.24.52.3.66,1.25,1,1.89a9.81,9.81,0,0,1-2.24.46c-.51,0-1-.46-1.5-.72-6.64-3.48-13.27-7-19.95-10.41a2.85,2.85,0,0,0-2.32,0c-4.19,2.37-8.31,4.87-12.42,7.36-.49.3-1.18.82-1.19,1.25-.1,3-.06,6.08-.06,9.11h43.56c0-4.47,0-8.78,0-13.09a1.61,1.61,0,0,0-.79-1.28q-3.65-1.87-7.4-3.54a1.67,1.67,0,0,0-1.44.15C126.52,102.28,125.16,103.57,123.67,104.89Zm13.89-18.1H94.16v19c.77-.42,1.37-.72,1.94-1.06,3.67-2.17,7.35-4.31,11-6.56a3.38,3.38,0,0,1,3.44-.06c3,1.68,6.1,3.18,9.12,4.83a1.62,1.62,0,0,0,2.28-.24c1.38-1.36,3-2.5,4.3-3.92s2.63-1.45,4.29-.54c2.22,1.22,4.57,2.22,7.06,3.4Zm10.33-.07v18.91h3.25V86.73Zm-67.38,0v18.87H83.2V86.76Zm77.81,21.85c0,2.92-.11,5.66.08,8.38,0,.67,1.17,1.84,1.63,1.77.75-.13,1.88-1,1.93-1.7.22-2.76.09-5.55.09-8.44Zm-91.22,0c0,2.88-.12,5.62.09,8.34a2.74,2.74,0,0,0,1.84,1.8c.46.1,1.67-1,1.72-1.68.19-2.77.08-5.56.08-8.46Z"/><path class="cls-2" d="M151.06,61.36a4.23,4.23,0,0,1-5.47,5.7,4.19,4.19,0,1,1,5.47-5.7Zm-3.74,3.73c.6-.86,1.25-1.39,1.21-1.85s-.74-.93-1.16-1.39c-.47.47-1.2.88-1.33,1.43C145.95,63.66,146.69,64.24,147.33,65.09Z"/><path class="cls-2" d="M161.56,63.24a4.22,4.22,0,0,1-4.2,4.17,4.19,4.19,0,1,1,4.2-4.17Zm-4.15-1.93c-.62.84-1.28,1.35-1.26,1.82s.73.92,1.13,1.39c.48-.45,1.23-.83,1.36-1.37S158,62.17,157.42,61.31Z"/><path class="cls-2" d="M115.44,94.23a4.14,4.14,0,1,1,4.12,4A4.07,4.07,0,0,1,115.44,94.23Zm6,.13c-.83-.74-1.29-1.47-1.74-1.46s-1,.69-1.46,1.08c.39.47.71,1.22,1.19,1.33S120.47,94.85,121.43,94.36Z"/></g></svg>