<svg id="Layer_1" data-name="Layer 1" xmlns="http://www.w3.org/2000/svg" viewBox="0 0 231.09 156"><defs><style>.cls-1,.cls-2{fill:#00a79d;}.cls-1{opacity:0.2;}</style></defs><title>Icon 1</title><path class="cls-1" d="M51.89,121.22V40.43h-9v80.79Z"/><path class="cls-1" d="M185.34,102.42H161.1v5.21h24.25Z"/><path class="cls-2" d="M63.11,38.56c.44-1.26.53-3.18,1.36-3.58a55.28,55.28,0,0,1,8.42-2.86c.26-.07,1.13.77,1.06,1a2.42,2.42,0,0,1-1.12,1.46c-1.68.71-3.5,1.13-5.15,1.9a3.24,3.24,0,0,0-1.4,1.9c-.07.24,1,1.15,1.56,1.2C82,40.8,96.11,41.93,111.13,43.15c-1.13-3.74,1.39-6.82-2-9.14-.16-.11.35-1.86.68-1.91a16.07,16.07,0,0,1,4.44,0c.29,0,.76,1.65.6,1.77-3.17,2.31-1.08,5.37-1.79,9L157.46,40l.7-1.18c-.65-.83-1.13-2-2-2.42-1.61-.83-3.47-1.16-5.16-1.87-.5-.21-.78-1-1.16-1.47.53-.33,1.17-1,1.57-.93a48.11,48.11,0,0,1,8.09,2.8c.85.42,1,2.3,1.64,4,2.45-.34,5.23-.9,8-1.06,4.23-.25,8.47-.35,12.7-.18.72,0,2,1.75,2,2.7.13,13.42.12,26.84,0,40.26,0,.89-.87,1.77-1.33,2.66-.4-.95-1.14-1.89-1.15-2.84-.08-12-.05-24.09-.05-36.13v-4h-9.62c0,7.26,0,14.56,0,21.85,0,7.06.09,14.13-.88,21.17-2.31-4.52-1.32-9.26-1.5-13.88s0-9.4,0-14.11,0-9.59,0-15A361.68,361.68,0,0,1,55,40.42v80.25c5.3-1.23,10.58-2.55,15.91-3.66a200.6,200.6,0,0,1,77.9-.86c1.44.26,2.73,1.4,4.09,2.13-1.45.12-3,.58-4.34.32-31.11-5.69-61.81-4-92.27,4.46-4.51,1.25-9.53.72-14.31.81-.61,0-1.4-1.12-1.8-1.89-.29-.54-.07-1.35-.07-2,0-26,.07-52.08-.09-78.11,0-3.6,1.08-4.6,4.49-4.32C50.65,38,56.82,38.23,63.11,38.56ZM51.89,121.22V40.43h-9v80.79Z"/><path class="cls-2" d="M191.08,91.37c-3.46.76-3,3.25-3,5.58,0,7.9-.07,15.8.06,23.69,0,2.52-.7,3.44-3.29,3.39q-11.67-.21-23.35,0c-2.42,0-3.18-.8-3.15-3.17.11-8.35.06-16.71,0-25.06,0-1.45.69-3.36-1.83-3.69-.29,0-.73-1-.63-1.36s.78-.78,1.26-.9a8.71,8.71,0,0,1,2-.07c9.39,0,18.77,0,28.16,0a20.75,20.75,0,0,1,3.35.55Zm-5.7,19.34H161.14v10.48h24.24Zm0-18.1h-24.2v6.86h24.2Zm0,9.8H161.12v5.21h24.25Z"/><path class="cls-2" d="M110.78,104.32c0-1.43,0-2.78,0-4.13,0-15.24.08-30.49-.05-45.73,0-3,.87-3.76,3.87-3.94,15.54-.93,31.05-2.19,46.58-3.31,1.33-.1,2.67,0,4,0l.41,1.09a11.89,11.89,0,0,1-3.28,1.33C147,50.87,131.73,52,116.43,53.18c-.9.07-1.8.11-3.09.2v53.83c-18.26-.09-35.86,2.6-53.4,5.76-.28.05-.68-.5-1.89-1.46,9-2.9,17.6-3.87,26.14-4.94S101.52,105.07,110.78,104.32Z"/><path class="cls-2" d="M58.88,46.92c3,.32,6,.71,9,.93q18.47,1.4,36.94,2.72c.34,0,.75-.11,1,0,.78.44,1.5,1,2.24,1.48-.75.36-1.51,1.05-2.25,1-6.4-.18-12.82-.28-19.2-.81-8.32-.68-16.61-1.7-24.9-2.67a13.76,13.76,0,0,1-3.31-1.31Z"/><path class="cls-2" d="M152.8,110.18c-1.05,0-2.11.08-3.16,0q-15-1.36-30.06-2.78a5.24,5.24,0,0,1-1.7-.12,11.72,11.72,0,0,1-1.91-1.44c.63-.34,1.26-1,1.89-1a80.24,80.24,0,0,1,8.93.2c7.86.78,15.7,1.7,23.53,2.65a11.54,11.54,0,0,1,2.81,1.14Z"/><path class="cls-2" d="M75.14,86.76c-.11-.82-.56-1.8-.27-2.45q5.22-11.39,10.67-22.67c.28-.57,1.13-.86,1.72-1.28.23.66.85,1.5.64,2C84.15,70.5,80.3,78.65,76.46,86.8Z"/><path class="cls-2" d="M147.66,59.94a23.67,23.67,0,0,1-.9,2.76c-3.22,6.93-6.44,13.85-9.77,20.72-.41.86-1.48,1.4-2.24,2.08,0-1.07-.38-2.31,0-3.2,3.15-7,6.42-13.86,9.74-20.74a12.66,12.66,0,0,1,2.07-2.45Z"/><path class="cls-2" d="M73.85,103.26a8.75,8.75,0,0,1,.23-2.9c2.68-5.91,5.48-11.77,8.25-17.65a11.67,11.67,0,0,1,1.22-2.44,8.57,8.57,0,0,1,2-1.39c.11.79.55,1.72.28,2.36-1.17,2.84-2.54,5.6-3.85,8.38-1.84,3.92-3.66,7.85-5.55,11.75a15.37,15.37,0,0,1-1.48,2.1Z"/><path class="cls-2" d="M145.76,78.93c-.27.73-.44,1.28-.68,1.79-3,6.5-6.07,13-9.22,19.46-.39.8-1.54,1.24-2.33,1.85,0-.93-.29-2,.06-2.76q4.52-10,9.28-19.81a4.87,4.87,0,0,1,1.9-1.58C144.86,77.83,145.44,78.58,145.76,78.93Z"/><path class="cls-2" d="M87.51,77.46c-.84-1.13-1.58-1.79-1.46-2,.71-1.44,1.61-2.78,2.45-4.16.41.42,1.24,1,1.15,1.24C89.14,74,88.42,75.44,87.51,77.46Z"/><path class="cls-2" d="M146.79,76.49c-2.29-2.93-.32-4.37.57-6a1.25,1.25,0,0,1,1.19-.05c.34.32.72,1,.58,1.37C148.55,73.23,147.78,74.56,146.79,76.49Z"/></svg>