<svg id="Layer_1" data-name="Layer 1" xmlns="http://www.w3.org/2000/svg" viewBox="0 0 231.09 156"><defs><style>.cls-1,.cls-2{fill:#00a79d;}.cls-1{opacity:0.2;}</style></defs><title>Icon 2</title><path class="cls-1" d="M117.78,128.64c0-8.56.07-16.38-.09-24.21a3.53,3.53,0,0,0-2-2.58c-5.79-1.61-11.65-3-17.52-4.34a7.9,7.9,0,0,0-3.86.32c-8.39,2.6-16.73,5.39-25.14,7.9-2.32.69-2.89,1.83-2.94,4.09s.89,3.13,2.89,3.73c11.86,3.61,23.68,7.31,35.52,11Z"/><path class="cls-1" d="M139.74,107.65v22.12c9.72-3.89,19.09-7.6,28.41-11.45.63-.26,1.11-1.56,1.11-2.38,0-.52-.94-1.35-1.59-1.51C158.45,112.14,149.21,109.93,139.74,107.65Z"/><path class="cls-2" d="M180,78.93c0,11.48-.08,23,.06,34.43,0,2.47-.78,3.6-3,4.49-14.26,5.6-28.44,11.39-42.7,17a8.39,8.39,0,0,1-5.13.18c-24.9-7.65-49.75-15.46-74.65-23.11-2.66-.82-3.49-2-3.48-4.82q.18-32.62,0-65.24c0-2.72.79-4,3.35-5,13.17-5.07,26.25-10.38,39.42-15.45a9.89,9.89,0,0,1,5.52-.44c25.81,6.19,51.57,12.54,77.37,18.75,2.64.64,3.39,1.85,3.35,4.48C179.91,55.73,180,67.33,180,78.93ZM173.79,42c-1.67-.52-2.57-.85-3.49-1.07-20-4.88-40.2-9.35-60.08-14.81-9.29-2.56-17.55-2.65-26.32,1.73C75.57,32,66.62,34.94,57.17,38.7c1.31.51,1.81.75,2.33.89,23.3,6.25,46.6,12.53,69.93,18.67a8.42,8.42,0,0,0,4.84-.44c9.11-3.52,18.16-7.21,27.23-10.85Zm-3.88,70.13c.87-9.9,0-19.14-3.42-28.09-3.25-8.44-8.11-15.66-16.14-20.17-3.13-1.76-6.71-2.73-10.73-4.3,0,15.33,0,29.53.09,43.73,0,.68,1.19,1.76,2,2C150.91,107.61,160.15,109.8,169.91,112.15Zm-52.07,16.49c0-8.56.07-16.38-.09-24.21a3.53,3.53,0,0,0-2-2.58c-5.79-1.61-11.65-3-17.52-4.34a7.9,7.9,0,0,0-3.86.32c-8.39,2.6-16.73,5.39-25.14,7.9-2.32.69-2.89,1.83-2.94,4.09s.89,3.13,2.89,3.73c11.86,3.61,23.68,7.31,35.52,11ZM66.56,103.8c5.82-1.85,11.38-3.75,17-5.35,2.15-.61,3-1.78,3-3.83,0-5.42.51-10.89-.05-16.25-1.22-11.57-5.29-22-14.09-30.13-1.62-1.49-3.54-2.66-5.89-4.41Zm51.27-4.35c0-13.61,0-26.63-.06-39.64a2.7,2.7,0,0,0-1.35-2.1c-6-1.72-12-3.27-18.44-5C98,66.54,98,79.79,98,93a2.35,2.35,0,0,0,1.26,1.8C105.31,96.43,111.36,97.87,117.83,99.45Zm54.74,16.88c3.77-.34,4.83-2.14,4.79-5.75-.19-20.89-.09-41.78-.09-62.67V43.59L143,57.35C170.32,68.69,174,91.12,172.57,116.33Zm-42.16,15.9V110.58c0-15.33,0-30.67-.06-46,0-1.19-.63-3.07-1.49-3.44a61.3,61.3,0,0,0-8.3-2.36c0,1.81,0,3.12,0,4.42q0,29,0,58C120.56,130.31,120.56,130.31,130.42,132.23ZM53.82,41.16c0,22.13,0,44,.06,65.79a2.79,2.79,0,0,0,1.34,2.14c2.56,1,5.22,1.68,8.41,2.65,0-1.79,0-3.07,0-4.36q0-27.7,0-55.39C63.62,42.87,63.62,42.87,53.82,41.16ZM89.17,96.52c2.53-1.29,6.08,0,6.09-4.09,0-12.78,0-25.56-.06-38.35a3.29,3.29,0,0,0-1.75-2.51c-5.84-1.73-11.74-3.22-18.5-5C88.46,61.12,90.91,78,89.17,96.52Zm50.62,11.13v22.12c9.72-3.89,19.09-7.6,28.41-11.45.63-.26,1.11-1.56,1.11-2.38,0-.52-.94-1.35-1.59-1.51C158.5,112.14,149.26,109.93,139.79,107.65Zm-2.86-47.34c-3.4,0-3.92,1.64-3.91,4.23.08,21.37,0,42.73.06,64.1,0,1.12.15,2.24.23,3.32,3.4-.09,3.66-2,3.66-4.44-.06-20,0-40.08,0-60.11Z"/><path class="cls-2" d="M173,53.45a11.22,11.22,0,0,1-1.87,1.37c-4.15,1.9-8.31,3.81-12.54,5.53-.75.31-1.85-.23-2.79-.38.56-.67,1-1.62,1.69-2q6.37-3,12.87-5.66c.69-.29,1.67.11,2.51.18Z"/><path class="cls-2" d="M161.92,64.5c-.49-.26-1.37-.49-1.39-.77,0-.57.24-1.53.66-1.71q5.09-2.21,10.3-4.12c.43-.16,1.28.37,1.69.81.17.18-.18,1.28-.52,1.43C169.15,61.64,165.59,63,161.92,64.5Z"/></svg>