<svg xmlns="http://www.w3.org/2000/svg" viewBox="0 0 231.09 103.26"><defs><style>.cls-1{isolation:isolate;}.cls-2{fill:#00a79d;}.cls-3{fill:#231f20;opacity:0.2;mix-blend-mode:multiply;}.cls-4{fill:#3c485a;}</style></defs><title>RIght Exhibit Logo 2</title><g class="cls-1"><g id="Layer_1" data-name="Layer 1"><path class="cls-2" d="M67.12,60.78l.65-.35A18.29,18.29,0,0,0,59,26.1H38.63L49.74,37.36H59a7,7,0,0,1,3.38,13.18L58.9,52.44,44,37.36h0L32.94,26.1H16.72L28.48,38V77.17H50.33V66.24H39.4V49.11l27.65,28h16.2Z"/><polygon class="cls-3" points="67.12 60.78 56.61 66.55 59.55 69.52 70.06 63.76 67.12 60.78"/><polygon class="cls-3" points="39.42 49.11 28.48 38.03 28.48 43.75 39.42 54.84 39.42 49.11"/><path class="cls-2" d="M109.74,48.78l-4-8.31h-1.85v8.31H98.45V26.44h8.85c5,0,7.62,3.51,7.62,7.18a6.42,6.42,0,0,1-3.64,5.84l4.83,9.32ZM107,31.37h-3.1v4.52H107a2.26,2.26,0,1,0,0-4.52Z"/><path class="cls-4" d="M118.86,48.78V26.44h5.49V48.78Z"/><path class="cls-4" d="M142.93,46.46a9.29,9.29,0,0,1-12.71,0C127.87,44.11,128,41,128,37.61s-.09-6.49,2.26-8.85a8.17,8.17,0,0,1,6.21-2.51c5.74,0,8.19,3.73,8.72,7.4h-5.52a2.89,2.89,0,0,0-3.2-2.51,2.68,2.68,0,0,0-2.17,1c-.5.66-.82,1.41-.82,5.49s.31,4.86.82,5.52a2.67,2.67,0,0,0,2.17.94,3.2,3.2,0,0,0,2.45-.88,3.34,3.34,0,0,0,.85-2.38V40.5h-3.29V35.92h8.75V39C145.18,42.63,144.62,44.73,142.93,46.46Z"/><path class="cls-4" d="M160.18,48.78V39.93h-5.84v8.85h-5.49V26.44h5.49V35h5.84v-8.6h5.49V48.78Z"/><path class="cls-4" d="M179.56,31.34V48.78h-5.49V31.34h-5.49V26.44h16.47v4.89Z"/><path class="cls-4" d="M98.57,77V54.65h15.18v4.89h-9.69v3.73h8.28v4.89h-8.28v3.92h9.69V77Z"/><path class="cls-4" d="M129.53,77l-3.67-6.87L122.19,77h-6.27l7-11.45-6.53-10.89h6.24L125.86,61l3.26-6.31h6.24l-6.53,10.89,7,11.45Z"/><path class="cls-4" d="M149.59,77V68.14h-5.83V77h-5.49V54.65h5.49v8.6h5.83v-8.6h5.49V77Z"/><path class="cls-4" d="M159.42,77V54.65h5.49V77Z"/><path class="cls-4" d="M178.93,77H169.2V54.65h9.26c4.64,0,7.12,2.6,7.12,6.46a5.38,5.38,0,0,1-2.45,4.42,5.2,5.2,0,0,1,2.76,4.86C185.89,74.66,182.91,77,178.93,77Zm-.82-17.41h-3.42v3.64h3.42a1.83,1.83,0,1,0,0-3.64Zm.28,8.56h-3.7v3.92h3.7a1.84,1.84,0,0,0,2-2A1.82,1.82,0,0,0,178.39,68.14Z"/><path class="cls-4" d="M189.54,77V54.65H195V77Z"/><path class="cls-4" d="M208.88,59.54V77h-5.49V59.54H197.9V54.65h16.47v4.89Z"/></g></g></svg>